<svg xmlns="http://www.w3.org/2000/svg" viewBox="0 0 80 120"><path fill="#FBE7C9" d="M40.4 47.8l-.3 23.5 3 1.1 33.8-13.7z"/><path fill="#F3CD90" d="M40.4 47.8L4.5 57.4l38.6 15-3-1.1z"/><path fill="#E78324" d="M4.5 57.4l38.6 15 1.5 44.1L6.9 98.7z"/><path fill="#FFCE34" d="M44.6 116.5l31.3-16.9 1-40.9-33.8 13.7z"/><path fill="#E78324" d="M61.2 39c-.5 9.9-15.1 19.8-19.6 21.9-2.2 1-12.5-9.4-14-10.8-5-4.8-8.9-8.8-6.9-16.2 1.5-5.6 7.2-7.5 12-7.3 1.8.1 8.1 2.6 7 6 1-3.1 9.3-4.3 12.9-4.3s9.1.7 8.6 10.7z"/><path fill="#97CDEF" d="M41.9 17.7c-1.2 0-2-1-2-2.1l.4-10.4c0-1.1.9-1.9 2-1.9h.1c1.1 0 2 1 1.9 2.1l-.4 10.4c0 1.1-.9 1.9-2 1.9zM51.7 20.3c-.4 0-.8-.1-1.2-.4-.9-.7-1.1-1.9-.4-2.8l5.8-7.9c.7-.9 1.9-1.1 2.8-.4.9.7 1.1 1.9.4 2.8l-5.8 7.9c-.4.5-1 .8-1.6.8zM31.4 20.5c-.6 0-1.1-.2-1.5-.7l-6.1-7.1c-.7-.8-.6-2.1.2-2.8.8-.7 2.1-.6 2.8.2l6.1 7.1c.7.8.6 2.1-.2 2.8-.3.4-.8.5-1.3.5z"/></svg>