<svg xmlns="http://www.w3.org/2000/svg" viewBox="0 0 250 200">
  <path fill="#FBE7C9" d="M237.9 164L217 137.2l-4.2-106c-.3-4.1-3.7-7.3-7.9-7.2l-157.3.8c-4.1.1-7.5 3.4-7.6 7.5L39.5 135l-28 29.7c-1.6 1.7-.4 4.5 1.9 4.5l222.5-1c2.2 0 3.4-2.5 2-4.2z"/>
  <path fill="#FFCE34" d="M197.9 35.9l-141.7 1c-2.4 0-4.3 2-4.4 4.3l.6 88.3c-.1 2.6 2 4.7 4.5 4.6l140.7-1.9c2.5 0 4.5-2.1 4.4-4.6l.4-87.3c0-2.5-2-4.4-4.5-4.4z"/>
  <path fill="#E78324" d="M140 84.5c-.2-1.2.3-2.4 1.2-3 1-.7 2.3-.7 3.3-.1l9.6 5.8c.9-2.2 1.5-4.3 1.6-6.5.7-14.4-6.7-16-11.6-18-5.2-2.1-18.3 4.3-19.8 8.8 1.5-5-7.6-8.6-10.2-8.8-7-.3-15.2 2.5-17.4 10.6-2.9 10.8 2.7 16.6 10 23.5 2.2 2.1 17.2 17.2 20.4 15.7 3.2-1.5 9.6-5.5 15.6-10.9L140 84.5z"/>
  <path fill="#F3CD90" d="M10.8 166.7zM238.4 166.2c-.3 1.1-1.2 2-2.6 2l-222.5 1c-.8 0-1.5-.3-2-.9l3.3 7.9 219.5.5 4.3-10.5z"/>
  <path fill="#F3CD90" d="M45.5 144.2l158.8-1 16 17.7h-189"/>
  <path fill="#FBE7C9" d="M176.7 102.5c0-1-.6-2-1.4-2.5l-30.8-18.6c-1-.6-2.3-.6-3.3.1s-1.5 1.9-1.2 3l5.4 33c.2.9.8 1.7 1.7 2.1.9.4 1.9.4 2.7-.1l7.9-5.4 8.6 10.9c.6.7 1.5 1.1 2.4 1.1.6 0 1.2-.2 1.7-.5l3.8-2.5c.7-.4 1.1-1.1 1.3-1.9.2-.8 0-1.6-.5-2.3l-6.5-9.6 6.8-4.3c.9-.5 1.4-1.5 1.4-2.5z"/>
  <path fill="#5DAED0" d="M145.3 89.3l3.9 22.8c.2.9 1.1 1.3 1.9.9l6.2-3.8c.6-.3 1.3-.2 1.7.3l8.7 11.5c.4.5 1.2.7 1.7.3l1-.7c.6-.4.8-1.2.3-1.8l-7.8-10.5c-.4-.6-.3-1.4.3-1.8l5.8-3.8c.8-.5.8-1.7-.1-2.2L147.2 88c-.9-.6-2 .2-1.9 1.3z"/>
</svg>
