<svg xmlns="http://www.w3.org/2000/svg" viewBox="0 0 250 200">
  <path fill="#FBE7C9" d="M176.9 141.9c-1-11.5-1.5-75.5-5-86s-13-14-14-19 .5-6.3.5-6.3 7-4.9.3-7.9c-47.6-12.7-70.4.8-75 2.7-4.6 1.9-6.3 7.5.7 8.5 0 0 1.5 4.5-1.5 9s-9 9.5-9.5 22-1 87.5 1 96 17 13.5 26.5 15 45.5 2 58.5-3 15.5-7 15.5-7 3-12.5 2-24z"/>
  <path fill="#E78324" d="M90.9 74.7v39s36 12.5 64.5-2.5l.5-36s-37 9-65-.5zm45.5 20.1c-.3 7.1-10.8 14.1-14 15.6-1.6.7-8.9-6.7-10-7.7-3.6-3.4-6.4-6.3-4.9-11.5 1.1-4 5.1-5.4 8.5-5.2 1.3.1 5.8 1.9 5 4.3.7-2.2 6.7-3.1 9.2-3.1 2.6 0 6.6.6 6.2 7.6z"/>
  <path fill="#F3CD90" d="M93.9 28.1c7.6-3.3 27.3-9.4 55.4-1.9 1.7.4 2.2 2.7.9 3.9-3.7 3.5-14.2 9.6-32.5 8.1-14.8-1.2-20.2-4.2-23.9-5.9-1.7-.8-1.7-3.5.1-4.2z"/>
  <path fill="#FFCE34" d="M128.2 140.8c0-.1 0-.1 0 0-.9-5.9-8.9-7.1-13.5-6.7-4.7.5-12.4 3.3-12.2 9.2-3.7-1.3-7.9-1.6-11.7-.4-2.6.9-5.4 2.7-5.7 5.7v-.1c-.1.7 0 1.5.2 2.2.6 1.9 2.1 3.2 3.7 4.3.4.2.8.5 1.1.7.7.4 1.5.7 2.3 1 3.3 1.3 6.9 1.9 10.4 1.5 1-.1 2.1-.3 3-.7-.8 6.7 8.5 7.2 13 6.6 3-.5 6.2-1.5 8.7-3.2 2.4-1.7 4.4-4.3 3.6-7.3.6 1.6.9 3.3 1 5 .1 2-.8 3.6-2.2 5 4.3 1.9 9.8 1.3 14.1-.3-2.7-1.2-3.7-3.9-3.7-6.7.7 2.3 3.3 3.3 5.4 3.7 3.1.6 6.5.3 9.6-.4 2.8-.6 5.6-1.7 7.8-3.4 1.5-1.2 2.9-2.7 2.5-5.1 0 0 .7 3.8 0 0v-.1c-.7-3.1-4.6-4.2-7.3-4.6-4.3-.5-9 .4-12.8 2.5-1.1-.3-2.3-.5-3.6-.5 1.2-1.4 1.8-3.2.9-4.9-.7-1.2-1.9-2-3.1-2.5-3.5-1.4-7.8-1.1-11.4-.1l-.1-.4z"/>
  <g fill="#FFAE00">
    <path d="M165.7 151.2c1 4.9-6.3 7.7-9.9 8.6-3.2.8-6.7 1.1-9.9.5-2.1-.4-4.8-1.4-5.4-3.7.1 2.8 1 5.5 3.7 6.7-4.3 1.6-9.8 2.2-14.1.3 1.4-1.4 2.3-3 2.2-5-.1-1.7-.4-3.4-1-5 .8 2.9-1.1 5.5-3.3 7.1-2.6 1.9-5.8 3-9 3.5-4.5.7-13.7.1-12.9-6.6-4.1 1.4-9.3.7-13.1-.7-3.4-1.3-8.1-4-7.7-8.3-.8 2.3-1.3 5.1-.2 7.3.9 1.8 2.5 3.2 4.3 4.2 4.8 2.7 12 3.5 17.1 1.1.3 1.9.9 4 2.4 5.3 1.3 1.2 3 1.8 4.7 2.1 4.8.9 10.3-.5 14.4-3.2 1.8 3 6.1 3.8 9.3 3.7 4.5-.1 9.6-1.6 13-4.8 4.5-.1 9.5-1.4 13.3-4.1 1.2-.9 2.5-2 2.9-3.5.3-1.6-.2-3.9-.8-5.5 0 0 .3 1 0 0zM143.1 144.6c.1.3.1.5.1.7v.8c0 .2-.1.4-.1.6v.1c-.1.2-.1.3-.2.5 0 .1-.1.2-.1.2-.1.1-.1.2-.2.4 0 .1-.1.1-.1.2-.1.2-.3.4-.4.5.7 0 1.4.1 2 .2-.2-1.9-.6-3.3-1-4.2z"/>
  </g>
  <path fill="#FFAE00" d="M116 154.1c7.1-.8 12.3-4.2 12.6-8 .2-2.4-.1-4.3-.4-5.5v.2c.5 4.5-4.7 8.1-11.8 8.8-6.9.7-13.1-1.5-13.9-5.7-.1 1.6.1 3.5.8 5.4 1.2 2.9 5.6 5.6 12.7 4.8z"/>
</svg>
