<svg xmlns="http://www.w3.org/2000/svg" viewBox="0 0 250 200">
  <path fill="#86CFC9" d="M41.4 127.5l.5 41.3c0 1.7 1.4 3 3.1 3l158.5-1.3c1.7 0 3-1.3 3.1-2.9l2-40.8c.1-1.8-1.3-3.2-3.1-3.2h-14c-1.3 0-2.5.8-2.9 2-1.8 5-6.8 17.6-11.9 18.5-6.3 1.1-99.9 2.9-106.2 0-5-2.3-10-12.9-11.8-17.1-.5-1.1-1.5-1.8-2.6-1.8l-11.3-.8c-1.9-.1-3.4 1.3-3.4 3.1z"/>
  <path fill="#25AC93" d="M201.6 115.6L54.2 114l-10.6 10.5c.4-.1.7-.2 1.1-.1l11.3.8c1.1.1 2.2.8 2.6 1.8 1.8 4.2 6.8 14.9 11.8 17.1 6.3 2.9 99.9 1.1 106.2 0 5-.9 10.1-13.5 11.9-18.5.4-1.2 1.6-2 2.9-2h14c.3 0 .6.1.8.1l-4.6-8.1z"/>
  <path fill="#86CFC9" d="M41.4 72.6l.5 38.8c0 1.4 1.2 2.6 2.6 2.6l159.4 1.7c1.4 0 2.6-1.1 2.6-2.5l2-41.2c.1-1.5-1.1-2.7-2.6-2.7h-14.8c-1.1 0-2.1.7-2.5 1.7-1.7 4.8-6.8 17.9-12 18.8-6.3 1.1-99.9 2.9-106.2 0-5.1-2.3-10.2-13.4-12-17.4-.4-.9-1.2-1.5-2.2-1.6L44.1 70c-1.4-.2-2.7 1-2.7 2.6z"/>
  <path fill="#5DAED0" d="M70.5 144.2c6.3 2.9 99.9 1.1 106.2 0 4.4-.8 8.8-10.5 11-16.3l-6.9-12.5-101.3-1.1-17 20.7c2.4 3.9 5.2 7.9 8 9.2zM205 68l-37.3-28.4c-1-.8-2.2-1.2-3.5-1.2l-68.7-.2c-1.1 0-2.1.3-3.1.9L45.1 68.8c-.5.3-1 .7-1.4 1.2h.5l12.1.8c1 .1 1.8.7 2.2 1.6 1.7 4 6.8 15.1 12 17.4 6.3 2.9 99.9 1.1 106.2 0 5.1-.9 10.3-14.1 12-18.8.4-1 1.4-1.7 2.5-1.7h15c-.3-.6-.7-1-1.2-1.3z"/>
  <path fill="#FBE7C9" d="M165.4 61.2c-.7-.8-1.8-1.3-2.9-1.3l-67.1.5c-.9 0-1.8.3-2.5 1L65.6 85.1c1.6 2.1 3.2 3.8 4.9 4.6 6.3 2.9 99.9 1.1 106.2 0 2.5-.5 5-3.8 7.1-7.7l-18.4-20.8z"/>
  <path fill="#5DAED0" d="M139 159.4l-26-.1c-1 0-1.9-.8-1.9-1.8l-.1-2.3c-.1-1.1.8-2 1.9-2l26.2-.1c1.1 0 2 .9 1.9 2l-.1 2.5c0 1-.8 1.8-1.9 1.8z"/>
  <path fill="#E78324" d="M149.3 67.7c.8-1.5-3.7-2.6-5-2.6-3.4-.1-7.5.8-8.5 3.2-1.4 3.2 1.3 5 4.9 7.1 1.1.6 8.5 5.2 10 4.7 3.2-.9 13.7-5.3 14-9.6.3-4.3-3.6-4.7-6.1-4.7-2.7 0-8.6.5-9.3 1.9z"/>
  <path fill="#25AC93" d="M154.6 115.1c-.1.1-.2.2-.2.3 0-.1.1-.2.1-.3l-12.2-.1c-.3.3-.5.6-.6.9-1.3 3 1.2 4.7 4.6 6.6 1 .6 7.9 4.9 9.4 4.4 3-.9 12.8-4.9 13.1-9 .1-1.2-.2-2.1-.6-2.7l-13.6-.1z"/>
  <path fill="#5DAED0" d="M113.2 97.8l28.8-.5c.9 0 1.7.7 1.7 1.6l.3 4.5c.1 1-.7 1.8-1.7 1.8l-29.4-.5c-1 0-1.8-.9-1.7-1.9l.3-3.5c.1-.8.8-1.5 1.7-1.5z"/>
</svg>
