<svg id="Layer_1" xmlns="http://www.w3.org/2000/svg" width="72" height="72" viewBox="0 0 72 72">
    <path fill="#2378b6" d="M36 5C18.9 5 5 18.9 5 36s13.9 31 31 31 31-13.9 31-31S53.1 5 36 5z"/>
    <path fill="#fff" d="M49.7 41.5c2.9 0 5.2-2.3 5.2-5.2s-2.3-5.2-5.2-5.2c-.3 0-.7 0-1 .1 0-.1-.1-.2-.1-.3.3-.2.5-.4.7-.6 2-2 2-5.4 0-7.4s-5.4-2-7.4 0c-.2.2-.4.5-.6.7-.1 0-.2-.1-.3-.1.1-.3.1-.6.1-.9 0-2.9-2.3-5.2-5.2-5.2s-5.2 2.3-5.2 5.2c0 .3 0 .6.1.9-.1 0-.2.1-.3.1-.2-.2-.4-.5-.6-.7-2-2-5.4-2-7.4 0s-2 5.4 0 7.4c.2.2.5.4.7.6 0 .1-.1.2-.1.3-.3-.1-.6-.1-1-.1-2.9 0-5.2 2.3-5.2 5.2 0 2.9 2.3 5.2 5.2 5.2.4 0 .7 0 1-.1 0 .1.1.2.1.2-.3.2-.6.4-.8.7-2 2-2 5.4 0 7.4s5.4 2 7.4 0c.3-.3.5-.5.7-.8.1 0 .1.1.2.1-.1.3-.1.7-.1 1.1 0 2.9 2.3 5.2 5.2 5.2 2.9 0 5.2-2.3 5.2-5.2 0-.4 0-.7-.1-1.1.1 0 .1-.1.2-.1.2.3.4.6.7.8 2 2 5.4 2 7.4 0s2-5.4 0-7.4c-.2-.2-.5-.5-.8-.7 0-.1.1-.1.1-.2.5.1.9.1 1.2.1z"/>
    <path fill="#2378b6" d="M36 40.4s4.7-3.3 4.7-5.9c0-1.5-1.2-2.6-2.5-2.6S36 33.1 36 33.1s-.9-1.2-2.2-1.2-2.5 1-2.5 2.6c-.1 2.6 4.7 5.9 4.7 5.9"/>
</svg>
