<svg xmlns="http://www.w3.org/2000/svg" width="72" height="72" viewBox="0 0 72 72"><path d="M36 5C18.9 5 5 18.9 5 36s13.9 31 31 31 31-13.9 31-31S53.1 5 36 5z" fill="#28ad94"/><path d="M49 47l-7.5-10.2c.3-.5.7-1.1 1.1-1.6 1.8-2.8 3.1-4.8 3.5-5.7.7-2 .2-4.6-1.5-6.9-.7-1-1.4-1.8-2.8-3.2-.8-.8-3.8-3-6.1-3s-5.3 2.2-6.1 3c-1.4 1.4-2.1 2.2-2.8 3.2-1.6 2.3-2.2 4.9-1.5 6.9.3.9 1.7 2.9 3.5 5.7.4.6.8 1.2 1.1 1.6L22.4 47c-.2.3-.2.7 0 1.1l4.8 6.3c.2.2.4.3.7.3.3 0 .5-.1.7-.4 0-.1 3.7-5.3 7.1-10 3.4 4.7 7 10 7.1 10 .2.2.4.4.7.4s.5-.1.7-.3L49 48c.2-.3.2-.7 0-1z" fill="#fff"/><path d="M35.7 33.2s4.7-3.3 4.6-5.9c0-1.5-1.2-2.5-2.5-2.5S35.6 26 35.6 26s-.9-1.2-2.2-1.2-2.4 1-2.5 2.5c.1 2.6 4.8 5.9 4.8 5.9" fill="#28ad94"/></svg>