<svg xmlns="http://www.w3.org/2000/svg" width="41" height="51" viewBox="0 0 41 51"><path d="M25.07 0a1.349 1.349 0 0 0-1.303 1.393l.429 12.912a.919.919 0 0 0 1.837 0l.429-12.912A1.35 1.35 0 0 0 25.07 0m-3.704 5.92a1.347 1.347 0 0 0-1.731-1 1.35 1.35 0 0 0-.872 1.697l2.666 8.294a.92.92 0 0 0 1.775-.475L21.366 5.92zm-4.544 12.2a.92.92 0 0 0 1.299-1.299l-5.85-6.456a1.349 1.349 0 1 0-1.906 1.905l6.457 5.85zm-1.91 3.31l-8.294-2.667a1.349 1.349 0 1 0-.698 2.603l8.516 1.838a.92.92 0 0 0 .475-1.775m-.475 5.596L5.92 28.863a1.35 1.35 0 1 0 .698 2.602l8.293-2.666a.92.92 0 0 0-.475-1.774m3.685 6.382a.92.92 0 0 0-1.299-1.299l-6.456 5.85a1.349 1.349 0 1 0 1.906 1.905l5.849-6.456zm4.465 1.316a.92.92 0 0 0-1.157.595l-2.666 8.293a1.347 1.347 0 0 0 1 1.731 1.35 1.35 0 0 0 1.603-1.034l1.838-8.516a.925.925 0 0 0-.618-1.069m6.213.595a.923.923 0 0 0-1.07-.618.92.92 0 0 0-.704 1.093l1.837 8.515a1.349 1.349 0 1 0 2.603-.697l-2.666-8.293zm4.608-3.21a.92.92 0 0 0-1.299 1.299l5.85 6.456a1.349 1.349 0 1 0 1.905-1.905l-6.456-5.85zm4.55-21.742l-5.849 6.456a.92.92 0 0 0 1.299 1.299l6.455-5.85a1.35 1.35 0 1 0-1.905-1.905m-10.314 5.14a.919.919 0 0 0 1.156-.595l2.666-8.294a1.348 1.348 0 0 0-.999-1.731 1.35 1.35 0 0 0-1.603 1.034l-1.838 8.516a.924.924 0 0 0 .618 1.07m-8.729.706a.92.92 0 0 0 1.213.325.918.918 0 0 0 .378-1.243L14.42 3.897a1.347 1.347 0 1 0-2.333 1.347l6.827 10.968zM3.897 14.42l11.397 6.085a.92.92 0 0 0 .919-1.591L5.245 12.086l-.078-.044a1.348 1.348 0 0 0-1.27 2.378m11.296 10.725a.918.918 0 0 0-.888-.95l-12.913-.428a1.348 1.348 0 1 0 0 2.694l12.913-.428a.923.923 0 0 0 .888-.888m1.345 4.956a.921.921 0 0 0-1.244-.378L3.897 35.808l-.077.045a1.348 1.348 0 0 0 1.425 2.289l10.968-6.827a.923.923 0 0 0 .325-1.214m3.642 3.62a.92.92 0 0 0-1.266.295l-6.827 10.968a1.348 1.348 0 1 0 2.333 1.347l6.085-11.396a.922.922 0 0 0-.325-1.214m4.965 1.315a.919.919 0 0 0-.949.888l-.429 12.913a1.348 1.348 0 1 0 2.694 0l-.428-12.913a.921.921 0 0 0-.888-.888m6.17-1.02a.92.92 0 0 0-1.591.919l6.085 11.396.044.078a1.348 1.348 0 1 0 2.288-1.425l-6.826-10.968zm-1.266-17.509a.918.918 0 0 0 1.266-.295l6.827-10.968.045-.077a1.35 1.35 0 0 0-2.378-1.27l-6.085 11.397a.921.921 0 0 0 .325 1.213" /></svg>
