<svg xmlns="http://www.w3.org/2000/svg" width="114" height="58" viewBox="0 0 114 58"><path d="M28.58 0a1.535 1.535 0 0 0-1.486 1.585l.49 14.684c.019.543.457.992 1.012 1.01a1.046 1.046 0 0 0 1.081-1.01l.49-14.684A1.532 1.532 0 0 0 28.58 0m-4.223 6.733a1.537 1.537 0 1 0-2.967.793l3.04 9.432c.165.504.688.816 1.22.702.565-.122.925-.678.803-1.242l-2.096-9.685zm-5.18 13.875a1.055 1.055 0 0 0 1.408 0c.428-.388.461-1.05.073-1.478l-6.668-7.342a1.54 1.54 0 0 0-2.28 0 1.531 1.531 0 0 0 .107 2.167l7.36 6.653zm-2.178 3.762l-9.454-3.032a1.538 1.538 0 0 0-1.974 1.137A1.534 1.534 0 0 0 6.748 24.3l9.708 2.09a1.045 1.045 0 0 0 .541-2.019m-.541 6.364l-9.708 2.09a1.534 1.534 0 1 0 .796 2.96l9.454-3.032a1.05 1.05 0 0 0 .704-1.216 1.048 1.048 0 0 0-1.246-.802m4.2 7.258a1.046 1.046 0 0 0-1.48-1.477l-7.36 6.652a1.531 1.531 0 0 0 0 2.273c.63.57 1.601.522 2.173-.106l6.667-7.342zm5.091 1.497a1.05 1.05 0 0 0-1.318.677l-3.04 9.43a1.532 1.532 0 0 0 1.14 1.969 1.538 1.538 0 0 0 1.828-1.175l2.095-9.685a1.052 1.052 0 0 0-.705-1.216m7.083.676a1.047 1.047 0 0 0-2.022.54l2.093 9.684a1.539 1.539 0 0 0 1.974 1.137 1.532 1.532 0 0 0 .994-1.93l-3.04-9.43zm5.253-3.65a1.055 1.055 0 0 0-1.408 0 1.044 1.044 0 0 0-.073 1.477l6.668 7.342a1.54 1.54 0 0 0 2.28 0 1.53 1.53 0 0 0-.108-2.166l-7.359-6.653zm5.187-24.727l-6.668 7.342a1.048 1.048 0 0 0 1.481 1.478l7.359-6.653a1.532 1.532 0 0 0 0-2.273 1.54 1.54 0 0 0-2.172.106m-11.758 5.845a1.048 1.048 0 0 0 1.317-.675l3.04-9.432a1.533 1.533 0 0 0-1.139-1.969 1.538 1.538 0 0 0-1.828 1.176l-2.095 9.685a1.05 1.05 0 0 0 .705 1.215m-9.95.805c.289.461.894.63 1.382.37.51-.273.704-.906.43-1.414L16.44 4.432a1.538 1.538 0 0 0-2.167-.579 1.529 1.529 0 0 0-.493 2.111l7.783 12.474zM4.442 16.4l12.992 6.92c.482.256 1.091.1 1.383-.37a1.044 1.044 0 0 0-.335-1.44L5.979 13.745c-.028-.017-.06-.034-.089-.05a1.539 1.539 0 0 0-2.079.63 1.53 1.53 0 0 0 .632 2.075M17.32 28.596a1.045 1.045 0 0 0-1.012-1.08l-14.72-.487a1.534 1.534 0 0 0-1.586 1.583c.027.846.737 1.51 1.585 1.48l14.721-.486a1.05 1.05 0 0 0 1.012-1.01m1.533 5.637a1.051 1.051 0 0 0-1.418-.43l-12.993 6.92-.088.051a1.53 1.53 0 0 0-.492 2.11c.449.72 1.396.941 2.117.493l12.503-7.764c.463-.29.632-.893.37-1.38m4.153 4.116a1.05 1.05 0 0 0-1.443.336L13.78 51.158a1.53 1.53 0 0 0 .58 2.163c.75.4 1.681.118 2.08-.63l6.937-12.96c.256-.483.1-1.09-.37-1.382m5.66 1.495a1.046 1.046 0 0 0-1.083 1.01l-.489 14.686a1.535 1.535 0 0 0 1.587 1.582 1.532 1.532 0 0 0 1.485-1.582l-.488-14.686a1.049 1.049 0 0 0-1.013-1.01m7.034-1.16a1.052 1.052 0 0 0-1.383-.369c-.511.272-.704.906-.431 1.415l6.937 12.96a1.539 1.539 0 0 0 2.168.58c.72-.447.94-1.392.491-2.112L35.7 38.685zm-1.443-19.911a1.048 1.048 0 0 0 1.443-.336l7.783-12.473a1.532 1.532 0 0 0-.58-2.162 1.538 1.538 0 0 0-2.08.63l-6.937 12.961c-.256.481-.1 1.088.37 1.38m43.627 4.137h-1.69c-.139 0-.25.114-.25.252v4.233c0 .09-.075.163-.163.163H70.72a.164.164 0 0 1-.164-.163v-4.233a.252.252 0 0 0-.25-.252h-1.708c-.14 0-.251.114-.251.252v10.809a.24.24 0 0 0 .24.24h1.726a.241.241 0 0 0 .243-.24v-4.335c0-.09.074-.163.164-.163h5.059c.088 0 .163.074.163.163v4.335c0 .133.108.24.241.24h1.708a.241.241 0 0 0 .243-.24V23.162a.253.253 0 0 0-.252-.252m6.58 0h-1.75c-.123 0-.222.1-.222.222v10.733c0 .191.156.347.348.347h1.498a.348.348 0 0 0 .348-.347V23.132c0-.122-.1-.222-.223-.222m16.482 0h-2.649a.225.225 0 0 0-.212.153l-2.84 8.664a.029.029 0 0 1-.054 0l-2.841-8.664a.224.224 0 0 0-.212-.153h-2.687a.221.221 0 0 0-.221.215l-.363 10.729a.348.348 0 0 0 .348.358h1.381c.19 0 .346-.152.347-.344l.104-8.55c0-.032.043-.038.053-.01l2.841 8.504a.347.347 0 0 0 .332.236h1.817c.15 0 .283-.094.33-.236l2.823-8.501c.01-.03.054-.022.056.009l.083 8.548c.003.19.158.344.35.344h1.433a.35.35 0 0 0 .35-.358l-.346-10.73a.222.222 0 0 0-.223-.214m8.309 5.932l-1.415.035v-4.123h1.342c1.74 0 2.61.688 2.61 2.008 0 1.319-.851 2.043-2.537 2.08m.072-5.932h-3.425a.235.235 0 0 0-.236.235v10.9c0 .093.075.168.167.168h1.878a.167.167 0 0 0 .166-.168v-3.34l1.286-.02c3.046-.018 4.84-1.392 4.84-3.995 0-2.208-1.541-3.78-4.676-3.78m-46.271 3.412a.218.218 0 0 0 .276.08 229.06 229.06 0 0 0 1.62-.768.216.216 0 0 0 .089-.314c-1.084-1.743-3.087-2.868-5.102-2.868-3.24 0-5.877 2.74-5.877 6.109 0 3.37 2.637 6.11 5.877 6.11 1.912 0 3.878-1.145 5.01-2.917a.222.222 0 0 0 .027-.177.22.22 0 0 0-.117-.138c-.421-.203-1.144-.544-1.54-.731a.22.22 0 0 0-.273.08c-.703 1.094-1.869 1.875-3.122 1.875-2.055 0-3.604-1.844-3.604-4.116 0-2.255 1.549-4.094 3.604-4.094 1.27 0 2.441.785 3.132 1.869"/></svg>
