<svg xmlns="http://www.w3.org/2000/svg" width="72" height="72" viewBox="0 0 72 72">
        <path fill="#16486d" d="M36 5C18.9 5 5 18.9 5 36s13.9 31 31 31 31-13.9 31-31S53.1 5 36 5z"/>
        <path fill="#fff" d="M43.4 21H22.5c-.5 0-.9.4-.9.9v28.3c0 .9.7 1.6 1.6 1.6s1.6-.7 1.6-1.6V38.9h18.6c.5 0 .9-.4.9-.9V21.9c0-.5-.4-.9-.9-.9z"/>
        <path fill="#fff" d="M52.3 38.4l3.9-6.6c.2-.4.2-.8 0-1.2-.2-.4-.6-.6-1-.6H47v10c0 .9-.7 1.6-1.6 1.6H35.3v3.9c0 .6.5 1.2 1.2 1.2h18.7c.4 0 .8-.2 1-.6.2-.4.2-.8 0-1.2l-3.9-6.5z"/>
        <path fill="#16486d" d="M32.8 33.8s4-2.8 3.9-5c0-1.3-1-2.2-2.1-2.2s-1.9 1-1.9 1-.8-1-1.9-1-2.1.9-2.1 2.2c.1 2.2 4.1 5 4.1 5"/>
</svg>
