<svg xmlns="http://www.w3.org/2000/svg" width="72" height="72" viewBox="0 0 72 72"><path d="M36 5C18.9 5 5 18.9 5 36s13.9 31 31 31 31-13.9 31-31S53.1 5 36 5z" fill="#16486d"/><path d="M49.6 26.1h-5.5v-.7c.1-1.6.2-3.4-1.1-4.8-1.2-1.3-3.4-1.9-7.1-1.9s-5.8.6-7.1 1.9c-1.3 1.4-1.2 3.2-1.1 4.8v.7h-5.5c-1.9 0-3.4 1.5-3.4 3.4v16.6c0 1.9 1.5 3.4 3.4 3.4h27.2c1.9 0 3.4-1.5 3.4-3.4V29.5c.2-1.9-1.3-3.4-3.2-3.4zm-8.4-.9c0 .3 0 .6-.1.9H30.8c0-.3 0-.6-.1-.9-.1-1.3-.1-2.2.3-2.6s1.6-1 4.9-1 4.5.5 4.9 1c.5.4.5 1.3.4 2.6z" fill="#fff"/><path d="M36 42s4.7-3.3 4.6-5.9c0-1.5-1.2-2.5-2.5-2.5S36 34.8 36 34.8s-.9-1.2-2.2-1.2-2.4 1-2.5 2.5c0 2.6 4.7 5.9 4.7 5.9" fill="#16486d"/></svg>