<svg xmlns="http://www.w3.org/2000/svg" width="72" height="72" viewBox="0 0 72 72"><circle fill="#58c7e0" cx="36" cy="36" r="31"/><path fill-rule="evenodd" clip-rule="evenodd" fill="#fff" d="M47.4 36.8h-8.9c-.5 0-.9.4-.9.9v14.2c0 .5.4.9.9.9h8.9c.5 0 .9-.4.9-.9V37.6c0-.4-.4-.8-.9-.8zM33.5 36.8h-8.9c-.5 0-.9.4-.9.9v14.2c0 .5.4.9.9.9h8.9c.5 0 .9-.4.9-.9V37.6c-.1-.4-.4-.8-.9-.8zM50.5 26h-12c-.5 0-.9.4-.9.9V33c0 .5.4.9.9.9h12c.5 0 .9-.4.9-.9v-6.1c0-.5-.4-.9-.9-.9zM33.5 26h-12c-.5 0-.9.4-.9.9V33c0 .5.4.9.9.9h12c.5 0 .9-.4.9-.9v-6.1c-.1-.5-.4-.9-.9-.9zM40.3 23.4c.9 0 2-.4 2.8-1.3 1.4-1.4 1.7-3.5.5-4.6-1.2-1.2-3.2-.9-4.6.5-1.4 1.4-1.7 3.5-.5 4.6.4.6 1.1.8 1.8.8zM31.3 23.4h.5c.7 0 1.4-.3 1.9-.7 1.2-1.2.9-3.2-.5-4.6-1.4-1.4-3.5-1.7-4.6-.5-1.2 1.2-.9 3.2.5 4.6.5.6 1.3 1.1 2.2 1.2z"/></svg>
