<svg id="icon" xmlns="http://www.w3.org/2000/svg" viewBox="0 0 72 72"><path d="M55.31 39.36H40.26a1.44 1.44 0 0 0-1.45 1.43v23.82A1.44 1.44 0 0 0 40.26 66h15.05a1.44 1.44 0 0 0 1.45-1.43V40.79a1.44 1.44 0 0 0-1.45-1.43zM31.74 39.36H16.69a1.44 1.44 0 0 0-1.45 1.43v23.82A1.44 1.44 0 0 0 16.69 66h15.05a1.44 1.44 0 0 0 1.45-1.43V40.79a1.44 1.44 0 0 0-1.45-1.43zM60.6 21.32H40.26a1.44 1.44 0 0 0-1.45 1.43V33a1.44 1.44 0 0 0 1.45 1.43H60.6A1.44 1.44 0 0 0 62 33V22.76a1.44 1.44 0 0 0-1.4-1.44zM31.74 21.32H11.4a1.44 1.44 0 0 0-1.4 1.44V33a1.44 1.44 0 0 0 1.4 1.4h20.34a1.44 1.44 0 0 0 1.45-1.4V22.76a1.44 1.44 0 0 0-1.45-1.44zM43.21 17a6.85 6.85 0 0 0 4.71-2.1c2.45-2.42 2.83-5.83.88-7.76s-5.4-1.51-7.8.91-2.83 5.83-.88 7.76A4.37 4.37 0 0 0 43.21 17zM28 17a5.31 5.31 0 0 0 .82.06A4.4 4.4 0 0 0 32 15.81c2-1.93 1.56-5.34-.88-7.76s-5.89-2.8-7.84-.87-1.56 5.34.88 7.76A7.11 7.11 0 0 0 28 17z"/></svg>
