<?xml version="1.0" encoding="UTF-8"?>
<svg width="64px" height="58px" viewBox="0 0 64 58" version="1.1" xmlns="http://www.w3.org/2000/svg" xmlns:xlink="http://www.w3.org/1999/xlink">
    <!-- Generator: Sketch 48.2 (47327) - http://www.bohemiancoding.com/sketch -->
    <title>Group</title>
    <desc>Created with Sketch.</desc>
    <defs></defs>
    <g id="Error-Message---500-Error-Message" stroke="none" stroke-width="1" fill="none" fill-rule="evenodd" transform="translate(-732.000000, -274.000000)">
        <g id="Group" transform="translate(732.000000, 274.000000)" fill="#FF001F">
            <path d="M32,4.02365083 C31.2462256,4.02365083 30.4263181,4.70375528 29.7507656,5.89231534 L4.62661069,50.0248197 C3.95034704,51.2126585 3.77968113,52.2721214 4.15585723,52.9341955 C4.53274445,53.5955484 5.52402892,53.975628 6.87584513,53.975628 L57.1234438,53.975628 C58.47526,53.975628 59.4665444,53.5955484 59.8434317,52.9341955 C60.2196078,52.2721214 60.0489419,51.2126585 59.3733893,50.0248197 L34.2492344,5.89231534 C33.5736819,4.7044765 32.7537744,4.02365083 32,4.02365083 M57.1234438,58 L6.87584513,58 C4.06839096,58 1.82484538,56.8871674 0.720494742,54.9463815 C-0.383855899,53.0077593 -0.212478884,50.4806267 1.19195931,48.0140761 L26.3161142,3.88157175 C27.7191302,1.41429993 29.7912987,0 32,0 C34.2087013,0 36.2808698,1.41429993 37.6845969,3.88085053 L62.8080407,48.0133549 C64.2124789,50.4799055 64.3838559,53.0070381 63.2795053,54.9456603 C62.1751546,56.8871674 59.9308979,58 57.1234438,58" id="Fill-1"></path>
            <path d="M30,20.3078843 C30,19.033413 31.1194376,18 32.5,18 C33.8805624,18 35,19.033413 35,20.3078843 L35,35.6921157 C35,36.9673002 33.8805624,38 32.5,38 C31.1194376,38 30,36.9673002 30,35.6921157 L30,20.3078843 Z" id="Fill-4"></path>
            <path d="M32.5,41 C34.4331479,41 36,42.5668521 36,44.5 C36,46.4324269 34.4331479,48 32.5,48 C30.5668521,48 29,46.4324269 29,44.5 C29,42.5668521 30.5668521,41 32.5,41" id="Fill-6"></path>
        </g>
    </g>
</svg>