<svg xmlns="http://www.w3.org/2000/svg" width="72" height="72" viewBox="0 0 72 72"><path d="M36 5C18.9 5 5 18.9 5 36s13.9 31 31 31 31-13.9 31-31S53.1 5 36 5z" fill="#5daed0"/><path d="M46.2 35.5c3.4-1 5.8-4.2 5.8-7.8 0-4.5-3.7-8.2-8.2-8.2-3.6 0-6.7 2.4-7.8 5.7-1.1-3.3-4.2-5.7-7.8-5.7-4.5 0-8.2 3.7-8.2 8.2 0 3.7 2.4 6.8 5.8 7.8-3.4 1-5.8 4.2-5.8 7.8 0 4.5 3.7 8.2 8.2 8.2 3.6 0 6.7-2.4 7.8-5.7 1.1 3.3 4.2 5.7 7.8 5.7 4.5 0 8.2-3.7 8.2-8.2 0-3.6-2.4-6.7-5.8-7.8z" fill="#fff"/><path d="M36 40s4.7-3.3 4.7-5.9c0-1.5-1.2-2.6-2.5-2.6S36 32.7 36 32.7s-.9-1.2-2.2-1.2-2.5 1-2.5 2.6C31.2 36.6 36 40 36 40" fill="#5daed0"/></svg>