<svg id="icon" xmlns="http://www.w3.org/2000/svg" viewBox="0 0 72 72"><path d="M36.18 4.15a1.42 1.42 0 0 0-1.42 1.42v8.65a1.42 1.42 0 1 0 2.85 0V5.58a1.42 1.42 0 0 0-1.43-1.43zM23.33 11.22a1.42 1.42 0 0 0-2 2L27.08 19a1.42 1.42 0 1 0 2-2zM44.91 19l5.77-5.78a1.42 1.42 0 1 0-2-2L42.89 17a1.42 1.42 0 0 0 2 2zM28.53 52.86v-8.11a1.42 1.42 0 0 0-2.84 0v3.83a1.41 1.41 0 0 1-2.82 0V30.22a1.26 1.26 0 1 0-2.51 0v12.7A1.4 1.4 0 0 1 19 44a1.42 1.42 0 0 1-1.42-1.42V26.13a1.36 1.36 0 0 0-2.73 0v16.48a1.42 1.42 0 0 1-2.83.07V29.07a1.36 1.36 0 1 0-2.73 0V45a1.42 1.42 0 1 1-2.89 0V36.19a1.2 1.2 0 1 0-2.4 0v8.17l-.11 10.91C3.89 60 5 63.51 7.16 65.66a7.4 7.4 0 0 0 4.7 2.18h10l.09-.08 6.57-6.7v-8.18s.01-.01.01-.02zM68 44.36v-8.17a1.2 1.2 0 0 0-2.4 0v8.85a1.42 1.42 0 1 1-2.85 0v-16a1.36 1.36 0 0 0-2.73 0v13.64a1.42 1.42 0 0 1-2.83-.07V26.13a1.36 1.36 0 1 0-2.73 0v16.48A1.42 1.42 0 0 1 53 44a1.4 1.4 0 0 1-1.36-1.11V30.22a1.26 1.26 0 1 0-2.51 0v18.35a1.41 1.41 0 0 1-2.82 0v-3.82a1.42 1.42 0 1 0-2.84 0v16.29L50 67.77l.09.08h10a7.4 7.4 0 0 0 4.7-2.18c2.21-2.16 3.32-5.67 3.32-10.4z"/></svg>
