<svg xmlns="http://www.w3.org/2000/svg" width="72" height="72" viewBox="0 0 72 72"><circle cx="36" cy="36" r="31" fill="#FA4612"/><path d="M42.9 39.6c3.7-2.3 6.2-6.4 6.2-11.1 0-7.2-5.9-13.1-13.1-13.1s-13.1 5.9-13.1 13.1c0 4.7 2.5 8.8 6.2 11.1-5.5 4.4-8.2 11.8-8.2 22.6v.9C25.4 65.6 30.5 67 36 67s10.6-1.4 15.1-3.9v-.9c0-10.8-2.7-18.3-8.2-22.6z" fill="#fff"/><path d="M38.8 54.5s4.7-3.3 4.7-5.9c0-1.5-1.2-2.6-2.5-2.6s-2.2 1.2-2.2 1.2-.9-1.2-2.2-1.2-2.5 1-2.5 2.6c-.1 2.5 4.7 5.9 4.7 5.9" fill="#FA4612"/></svg>