<svg xmlns="http://www.w3.org/2000/svg" width="72" height="72" viewBox="0 0 72 72"><g fill-rule="evenodd" clip-rule="evenodd"><path d="M64.8 24c-.1-3.1-.6-5.2-1.3-7-.7-1.9-1.7-3.5-3.3-5.1-1.6-1.6-3.2-2.6-5.1-3.3-1.8-.7-4-1.2-7-1.3C44.9 7 43.9 7 36 7c-7.9 0-8.9 0-12 .2-3.1.1-5.2.6-7 1.3-1.9.7-3.5 1.7-5.1 3.3-1.6 1.6-2.6 3.2-3.3 5.1-.7 1.8-1.2 4-1.3 7C7 27.1 7 28.1 7 36s0 8.9.2 12c.1 3.1.6 5.2 1.3 7 .7 1.9 1.7 3.5 3.3 5.1 1.6 1.6 3.2 2.6 5.1 3.3 1.8.7 4 1.2 7 1.3 3.2.3 4.2.3 12.1.3 7.9 0 8.9 0 12-.2 3.1-.1 5.2-.6 7-1.3 1.9-.7 3.5-1.7 5.1-3.3 1.6-1.6 2.6-3.2 3.3-5.1.7-1.8 1.2-4 1.3-7 .3-3.2.3-4.2.3-12.1s0-8.9-.2-12zm-5.2 23.7c-.1 2.8-.6 4.4-1 5.4-.5 1.4-1.2 2.3-2.2 3.3-1 1-2 1.6-3.3 2.2-1 .4-2.6.9-5.4 1-3.1.1-4 .2-11.7.2-7.7 0-8.7 0-11.7-.2-2.8-.1-4.4-.6-5.4-1-1.4-.5-2.3-1.2-3.3-2.2-1-1-1.6-2-2.2-3.3-.4-1-.9-2.6-1-5.4-.1-3.1-.2-4-.2-11.7s0-8.7.2-11.7c.1-2.8.6-4.4 1-5.4.5-1.4 1.2-2.3 2.2-3.3s2-1.6 3.3-2.2c1-.4 2.6-.9 5.4-1 3.1-.1 4-.2 11.7-.2s8.7 0 11.7.2c2.8.1 4.4.6 5.4 1 1.4.5 2.3 1.2 3.3 2.2 1 1 1.6 2 2.2 3.3.4 1 .9 2.6 1 5.4.1 3.1.2 4 .2 11.7s-.1 8.7-.2 11.7z"/><path d="M36 21.1c-8.2 0-14.9 6.7-14.9 14.9S27.8 50.9 36 50.9 50.9 44.2 50.9 36 44.2 21.1 36 21.1zm0 24.6c-5.3 0-9.7-4.3-9.7-9.7s4.3-9.7 9.7-9.7c5.3 0 9.7 4.3 9.7 9.7s-4.4 9.7-9.7 9.7z"/><circle cx="51.5" cy="20.5" r="3.5"/></g></svg>