<svg xmlns="http://www.w3.org/2000/svg" width="72" height="72" viewBox="0 0 72 72">
  <path d="M24.6 32.3l3.2-10.6 10.6-3.2-10.6-3.2-3.2-10.6-3.2 10.6-10.6 3.2 10.6 3.2 3.2 10.6zm-11 13.8l1.9-6.4 6.4-1.9-6.4-1.9-1.9-6.4-1.9 6.4-6.4 1.9 6.4 1.9 1.9 6.4zm28.9-30.4l1-3.2 3.2-1-3.2-1-1-3.2-1 3.2-3.2 1 3.2 1 1 3.2zm8.6 17.2l8.5-8.5c1.1-1.1 1.1-2.8 0-3.9l-3.9-3.9c-1.1-1.1-2.8-1.1-3.9 0l-8.5 8.5 7.8 7.8zm13.4 3.6l-1.3-4.2-1.3 4.2-4.2 1.3 4.2 1.3 1.3 4.2 1.3-4.2 4.2-1.3-4.2-1.3zM39.4 29L11.6 56.8c-1.1 1.1-1.1 2.8 0 3.9l3.9 3.9c1.1 1.1 2.8 1.1 3.9 0l27.8-27.8-7.8-7.8zm12.8 17.1l-1.9 6.4-6.4 1.9 6.4 1.9 1.9 6.4 1.9-6.4 6.4-1.9-6.4-1.9-1.9-6.4z"/>
</svg>
