<svg id="icon" xmlns="http://www.w3.org/2000/svg" viewBox="0 0 72 72"><path d="M42.76 43a34.67 34.67 0 0 1-5.88 2.39 34.61 34.61 0 0 1 2.39-5.88l8-8-6.64-20.44a2 2 0 0 0-2.56-1.29L7.63 20a2 2 0 0 0-1.28 2.53l12.44 38.4a2 2 0 0 0 1.92 1.39 1.94 1.94 0 0 0 .64-.1L51.8 52a2 2 0 0 0 1.27-2.53L49 36.82 42.79 43zM20.55 31.46a2 2 0 1 1-1.29-3.82L33.18 23a2 2 0 0 1 1.29 3.82zm.29 7.5a2 2 0 0 1 1.27-2.55L36 31.73a2 2 0 0 1 1.29 3.82l-13.9 4.68A2 2 0 0 1 20.84 39zM32.23 47l-6 2A2 2 0 0 1 25 45.17l6-2A2 2 0 1 1 32.23 47zM63.24 16.5a2.49 2.49 0 0 0-1.77.74l-.68.68 3.55 3.55.68-.68a2.51 2.51 0 0 0-1.77-4.28z"/><path d="M59.01 19.69L47.24 31.45l1.74 5.37 13.58-13.58-3.55-3.55z"/></svg>
