<svg id="icon" xmlns="http://www.w3.org/2000/svg" viewBox="0 0 72 72"><path d="M12.8 41q.55-.5 1.12-1a43.85 43.85 0 0 1 11.28-6.85 37.08 37.08 0 0 1 3.69-1.32c.65-.19 1.1-.31 1.32-.35a1.72 1.72 0 1 0-.69-3.37c-.31.06-.86.2-1.61.42a40.5 40.5 0 0 0-4 1.45 47.26 47.26 0 0 0-12.17 7.39q-.61.51-1.21 1A1.72 1.72 0 0 0 12.8 41zM32.55 42.54a23.22 23.22 0 0 0-3.84 1.09 31.46 31.46 0 0 0-8.23 4.47 29.2 29.2 0 0 0-4.4 4.1 1.72 1.72 0 1 0 2.59 2.26 25.77 25.77 0 0 1 3.88-3.62 28 28 0 0 1 7.33-4 24.59 24.59 0 0 1 2.4-.74c.42-.11.7-.16.84-.19a1.72 1.72 0 1 0-.57-3.39zM64.57 27.73l-8.38-1.8L52.92 18a1.72 1.72 0 0 0-3.08-.21l-4.3 7.41-8.54.68a1.72 1.72 0 0 0-1.15 2.86l5.72 6.38-2 8.33a1.72 1.72 0 0 0 2.37 2L49.76 42l7.3 4.49a1.72 1.72 0 0 0 2.61-1.64l-.88-8.52 6.52-5.56a1.72 1.72 0 0 0-.74-3.04zM35 33.92c-.36.07-1 .22-1.86.46-1.43.4-3 .92-4.73 1.57a57.28 57.28 0 0 0-14.28 8 52.41 52.41 0 0 0-7.63 7.14 1.72 1.72 0 1 0 2.59 2.26 49 49 0 0 1 7.12-6.67 53.86 53.86 0 0 1 13.42-7.51c1.6-.62 3.08-1.1 4.4-1.47.78-.22 1.33-.34 1.6-.4a1.72 1.72 0 0 0-.63-3.38z"/></svg>
