<svg xmlns="http://www.w3.org/2000/svg" width="72" height="72" viewBox="0 0 72 72">
    <title>switch</title>
    <path d="M65.7 18.3c0-.2-.1-.4-.2-.6 0 0 0-.1-.1-.1-.1-.2-.2-.3-.4-.5L51.4 3.5c-.9-.9-2.3-.9-3.2 0s-.9 2.3 0 3.2l9.8 9.8H10.6c-1.2 0-2.2 1-2.2 2.2s1 2.2 2.2 2.2h47.5l-9.8 9.8c-.9.9-.9 2.3 0 3.2.4.4 1 .7 1.6.7s1.2-.2 1.6-.7l13.7-13.7.1-.1.1-.1c.1-.1.2-.3.3-.5.1-.2.1-.4.1-.6v-.1c-.1-.1-.1-.3-.1-.5zM60.4 51.4H12.9l9.8-9.8c.9-.9.9-2.3 0-3.2-.9-.9-2.3-.9-3.2 0L5.9 52.1c-.1.1-.3.3-.4.5 0 0 0 .1-.1.1-.2.4-.3.7-.2 1.1v.1c0 .2.1.4.1.6.1.2.2.3.3.5l.1.1.1.1 13.7 13.7c.4.4 1 .7 1.6.7s1.2-.2 1.6-.7c.9-.9.9-2.3 0-3.2l-9.8-9.8h47.5c1.2 0 2.2-1 2.2-2.2s-1-2.3-2.2-2.3z"/>
</svg>
