<svg xmlns="http://www.w3.org/2000/svg" width="72" height="72" viewBox="0 0 72 72"><path fill="#2779be" d="M36 5C18.9 5 5 18.9 5 36s13.9 31 31 31 31-13.9 31-31S53.1 5 36 5z"/><path fill="#fff" d="M48.2 28.6l-7-8.2c-.2-.3-.6-.4-1-.2-.3.1-.6.4-.6.8v8.2c0 .5.4.9.9.9h7c.3 0 .6-.2.8-.5.2-.4.1-.8-.1-1z"/><path fill="#fff" d="M47.6 32.1h-8.3c-1.2 0-1.7-.4-1.7-1.7v-1.3h-7.2c-.7 0-1.3-.6-1.3-1.3 0-.7.6-1.3 1.3-1.3h7.2v-5.7c0-.5-.4-.9-.9-.9H25.2c-.5 0-.9.4-.9.9v30.5c0 .5.4.9.9.9h22.4c.5 0 .9-.4.9-.9V32.9c-.1-.4-.4-.8-.9-.8zm-5.2 13.6h-12c-.7 0-1.3-.6-1.3-1.3s.6-1.3 1.3-1.3h12c.7 0 1.3.6 1.3 1.3 0 .7-.6 1.3-1.3 1.3zm0-8.3h-12c-.7 0-1.3-.6-1.3-1.3s.6-1.3 1.3-1.3h12c.7 0 1.3.6 1.3 1.3 0 .7-.6 1.3-1.3 1.3z"/></svg>
