<svg id="icon" xmlns="http://www.w3.org/2000/svg" viewBox="0 0 72 72"><path d="M60.26 45.58l1.1-1.35a5.12 5.12 0 0 0 1.18-3.13 4.82 4.82 0 0 0-2.24-4.3l-1.2-.8.21-1.45a5.55 5.55 0 0 0-.8-4.06 4.76 4.76 0 0 0-4-1.91A52.86 52.86 0 0 0 45 29.73l-3.41.61a4.91 4.91 0 0 1-.9.07l-1.79-.08-.48-1.62c-.44-1.47-.12-4 .89-7 2.35-7 2-10.2 1.27-11.63a4.38 4.38 0 0 0-3.89-2 5.77 5.77 0 0 0-.72 0c-2.42.34-4.12 2.24-4.68 5.21-.71 3.8-3.39 6.91-6 9.95A31.28 31.28 0 0 0 21 29.2a17.31 17.31 0 0 1-8.88 8.8 2.35 2.35 0 0 0-.73.56c-.2.24-.73.69-1.32 3-.81 3.12-1 11.33.6 15.69A2.4 2.4 0 0 0 13 58.77c1.32 0 4.47.31 10.81 2.38 7.38 2.41 10.67 2.76 19 2.76h6.91c3.4 0 7.76-.61 9.26-3.3a5 5 0 0 0 .31-3.92l-.41-1.47 1.16-1a5.57 5.57 0 0 0 2-4.32 4.91 4.91 0 0 0-.83-2.9z"/></svg>
