<svg xmlns="http://www.w3.org/2000/svg" width="72" height="72" viewBox="0 0 72 72">
    <title>twitter</title>
  <path d="M61.5 23.1v1.7c0 17.4-13.2 37.5-37.5 37.5-7.4 0-14.4-2.2-20.2-5.9 1 .1 2.1.2 3.1.2 6.2 0 11.9-2.1 16.4-5.6-5.7-.2-10.6-4-12.3-9.2.8.1 1.6.2 2.5.2 1.2 0 2.4-.2 3.5-.5C11 40.3 6.4 35 6.4 28.6v-.2c1.8 1 3.8 1.6 6 1.7-3.5-2.4-5.9-6.4-5.9-11 0-2.4.6-4.7 1.8-6.6 6.5 8 16.2 13.2 27.1 13.8-.2-1-.3-2-.3-3 0-7.3 5.9-13.2 13.2-13.2 3.8 0 7.2 1.6 9.6 4.2 3-.6 5.8-1.7 8.4-3.2-1 3.1-3.1 5.7-5.8 7.3 2.7-.3 5.2-1 7.6-2.1-1.8 2.7-4.1 5-6.6 6.8z" />
</svg>
